<svg xmlns="http://www.w3.org/2000/svg" viewBox="0 0 48 60" enable-background="new 0 0 48 48"><path d="M45.4 2.5h2.1v45h-2.1zM22.7 6v41.5h20.1V.5H22.7V6zM38 4h2.1v2.3H38V4zm0 5.4h2.1v2.3H38V9.4zm0 5.4h2.1v2.3H38v-2.3zm0 5.4h2.1v2.3H38v-2.3zm0 5.5h2.1V28H38v-2.3zm0 5.4h2.1v2.3H38v-2.3zm0 5.4h2.1v2.3H38v-2.3zm0 5.4h2.1v2.3H38v-2.3zM31.7 4h2.1v2.3h-2.1V4zm0 5.4h2.1v2.3h-2.1V9.4zm0 5.4h2.1v2.3h-2.1v-2.3zm0 5.4h2.1v2.3h-2.1v-2.3zm0 5.5h2.1V28h-2.1v-2.3zm0 5.4h2.1v2.3h-2.1v-2.3zm0 5.4h2.1v2.3h-2.1v-2.3zm0 5.4h2.1v2.3h-2.1v-2.3zM25.3 4h2.1v2.3h-2.1V4zm0 5.4h2.1v2.3h-2.1V9.4zm0 5.4h2.1v2.3h-2.1v-2.3zm0 5.4h2.1v2.3h-2.1v-2.3zm0 5.5h2.1V28h-2.1v-2.3zm0 5.4h2.1v2.3h-2.1v-2.3zm0 5.4h2.1v2.3h-2.1v-2.3zm0 5.4h2.1v2.3h-2.1v-2.3zM.5 47.5h20.1V10L.5 24v23.5zm15.3-27.3h2.1v2.3h-2.1v-2.3zm0 5.5h2.1V28h-2.1v-2.3zm0 5.4h2.1v2.3h-2.1v-2.3zm0 5.4h2.1v2.3h-2.1v-2.3zm0 5.4h2.1v2.3h-2.1v-2.3zM9.5 25.7h2.1V28H9.5v-2.3zm0 5.4h2.1v2.3H9.5v-2.3zm0 5.4h2.1v2.3H9.5v-2.3zm0 5.4h2.1v2.3H9.5v-2.3zM3.1 31.1h2.1v2.3H3.1v-2.3zm0 5.4h2.1v2.3H3.1v-2.3zm0 5.4h2.1v2.3H3.1v-2.3z"/><text y="63" font-size="5" font-weight="bold" font-family="'Helvetica Neue', Helvetica, Arial-Unicode, Arial, Sans-serif">Created by Creative Stall</text><text y="68" font-size="5" font-weight="bold" font-family="'Helvetica Neue', Helvetica, Arial-Unicode, Arial, Sans-serif">from the Noun Project</text></svg>