<svg xmlns="http://www.w3.org/2000/svg" viewBox="0 0 48 60" enable-background="new 0 0 48 48"><path d="M25 48H0V0h25v48zM2 46h21V2H2v44zM48 48H23V17.8h25V48zm-23-2h21V19.8H25V46zM4.7 5.3h2v6.8h-2zM4.7 15.4h2v6.8h-2zM4.7 25.5h2v6.8h-2zM4.7 35.6h2v6.7h-2zM18 5.3h2v6.8h-2zM18 15.4h2v6.8h-2zM18 25.5h2v6.8h-2zM11.5 5.3h2v6.8h-2zM11.5 15.4h2v6.8h-2zM11.5 25.5h2v6.8h-2zM27.9 29.9h2v3.9h-2zM41.1 29.9h2v3.9h-2zM34.6 29.9h2v3.9h-2zM27.9 23h2v3.9h-2zM41.1 23h2v3.9h-2zM34.6 23h2v3.9h-2zM18 35.6h2v6.7h-2zM16.3 48H8.6V34.6h7.7V48zm-5.7-2h3.7v-9.4h-3.7V46zM42.7 48H28.4V35.4h14.3V48zm-12.3-2h10.3v-8.6H30.4V46z"/><text y="63" font-size="5" font-weight="bold" font-family="'Helvetica Neue', Helvetica, Arial-Unicode, Arial, Sans-serif">Created by Creative Stall</text><text y="68" font-size="5" font-weight="bold" font-family="'Helvetica Neue', Helvetica, Arial-Unicode, Arial, Sans-serif">from the Noun Project</text></svg>