<svg xmlns="http://www.w3.org/2000/svg" viewBox="0 0 64 80" enable-background="new 0 0 64 64"><path d="M32 10.784L2 28.82h60L32 10.785zm0 1.167l26.396 15.87H5.604L32 11.95zM32 14.285L12.813 25.82h38.375zM4.248 53.217h55.504V30.184H4.248v23.033zm48.684-19.635h3.925v7.313h-3.925v-7.313zm0 9.438h3.925v7.314h-3.925V43.02zm-7.63-9.438h3.923v7.313H45.3v-7.313zm0 9.438h3.923v7.314H45.3V43.02zm-7.634-9.438h3.926v7.313h-3.926v-7.313zm-7.63 0h3.924v7.313h-3.924v-7.313zm-7.632 0h3.926v7.313h-3.926v-7.313zm0 9.438h19.187v9.592H22.407V43.02zm-7.63-9.438h3.923v7.313h-3.925v-7.313zm0 9.438h3.923v7.314h-3.925V43.02zm-7.632-9.438h3.925v7.313H7.143v-7.313zm0 9.438h3.925v7.314H7.143V43.02z"/><text y="79" font-size="5" font-weight="bold" font-family="'Helvetica Neue', Helvetica, Arial-Unicode, Arial, Sans-serif">Created by Creative Stall</text><text y="84" font-size="5" font-weight="bold" font-family="'Helvetica Neue', Helvetica, Arial-Unicode, Arial, Sans-serif">from the Noun Project</text></svg>